<svg xmlns="http://www.w3.org/2000/svg" viewBox="238 36.179 157.744 80.117">
  <defs>
    <style>
      .cls-1 {
        fill: #00355f;
      }

      .cls-2 {
        fill: #ec881d;
      }
    </style>
  </defs>
  <g id="tb-logo" transform="translate(238 36.179)">
    <path id="Path_234" data-name="Path 234" class="cls-1" d="M388.034,95.257l3.935-3.935-.645-.622L386.9,95.124Z" transform="translate(-300.892 -70.537)"/>
    <path id="Path_235" data-name="Path 235" class="cls-1" d="M412.167,98.913,415.9,95.2l-.6-.6-4.2,4.2Z" transform="translate(-319.713 -73.57)"/>
    <path id="Path_236" data-name="Path 236" class="cls-1" d="M436.856,104.012l3.179-3.179-.534-.534-3.6,3.579Z" transform="translate(-339 -78.003)"/>
    <path id="Path_237" data-name="Path 237" class="cls-1" d="M460.956,110.234l2.2-2.2-.534-.534L460,110.123Z" transform="translate(-357.742 -83.603)"/>
    <path id="Path_238" data-name="Path 238" class="cls-1" d="M241.567,65.725l7.2-7.2-.823-.823L240.1,65.547Z" transform="translate(-186.726 -44.873)"/>
    <path id="Path_239" data-name="Path 239" class="cls-1" d="M322.023,86.135,326.18,82l-.8-.8L320.6,85.957Z" transform="translate(-249.331 -63.149)"/>
    <path id="Path_240" data-name="Path 240" class="cls-1" d="M201.878,60.014l7.425-7.425-.889-.889L200.3,59.836Z" transform="translate(-155.773 -40.207)"/>
    <path id="Path_241" data-name="Path 241" class="cls-1" d="M280.323,74.058,286.48,67.9l-.8-.8-6.78,6.8Z" transform="translate(-216.901 -52.184)"/>
    <g id="Group_199" data-name="Group 199" transform="translate(5.335)">
      <path id="Path_242" data-name="Path 242" class="cls-2" d="M353.334,16.072l1.489.8h2.712c6.713.133,16.517,1.512,23.875,5.024l.978.467h1.023c.667,0,1.623.022,2.779.133a1.692,1.692,0,0,1,2.4-1.512,1.714,1.714,0,0,1,1.667-1.378,1.664,1.664,0,0,1,1.489.911,1.71,1.71,0,0,1,2.623.222,1.672,1.672,0,0,1,1.445-1.178,1.622,1.622,0,0,1-.267-.911,1.694,1.694,0,0,1,1.645-1.689,1.625,1.625,0,0,1-.178-.734,1.659,1.659,0,0,1,.289-.934H394.57V10.27h-3.134V8.114h-7.38v5.557h-2.623V0h-6.558V8.136h-2.868v7.136h-2.579V5.091l-3.157-3.668-3.157,3.69v5.18h-5.157v3.4H352.2v1.8c.378.178.778.378,1.134.578" transform="translate(-279.241)"/>
      <path id="Path_243" data-name="Path 243" class="cls-1" d="M204.417,56.2v3.357l1.089.133V56.244c1.423.067,2.934.2,4.513.378v3.6l1.023.133v-3.6c1.356.178,2.756.4,4.157.689v3.423l.956.111V57.644c1.334.289,2.668.622,3.979,1v2.779l.889.111V58.889a38.616,38.616,0,0,1,3.712,1.356v1.734l.823.089V60.578h0l.845,2.334-24.364-2.334Zm-47.083.022,6.135-8.381v6.8l1.312.156V47.729a74.063,74.063,0,0,1,7.6.378v7.6l1.2.156V48.241c2.445.289,4.868.667,7.269,1.156v7.336l1.178.133V49.641c2.267.489,4.446,1.067,6.536,1.689v6.313l1.134.133V51.686a52.992,52.992,0,0,1,6.336,2.512v4.335l1.134.133v-3.89h0l1.712,5.469Zm71.892,6.98.911-1.623h0v1.045l.867.089V61.6c.622.022,1.289.111,1.978.2v1.178l.778.089V61.912a17.7,17.7,0,0,1,1.823.378v1l.756.089v-.911c.534.133,1.067.311,1.6.489v.6l.756.089v-.4c.445.178.867.356,1.267.556l1.934.222-.578-1.445-.311-.178c-4.246-2.356-9.826-2.734-11.426-2.734h-.534l-1.023,1.845-.711-2.379-.422-.2c-7.069-3.357-16.539-4.691-23.03-4.824h-.622l-2.423,4.468-1.578-5.424-.445-.245c-8.759-4.757-23.942-8.025-36.013-7.625l-.578.022-7.6,10.4v2.868L211.064,63.6v.422L154.6,61.268V64.38h0v2.4h88.92v-2.2Z" transform="translate(-125.568 -35.192)"/>
      <path id="Path_244" data-name="Path 244" class="cls-2" d="M25.312,336.79h.8a.857.857,0,0,0,.911-.911.81.81,0,0,0-.911-.845h-.8ZM26,333.9c1.4,0,2.379.511,2.379,2.045a2.025,2.025,0,0,1-.845,1.623l1.045,2.134H27.09c-.289-.6-.556-1.2-.845-1.8h-.911v1.8H24v-5.8Z" transform="translate(-24 -259.674)"/>
    </g>
    <path id="Path_245" data-name="Path 245" class="cls-2" d="M61.79,333.9v1.111H59.034v1.2h2.334v1.112H59.034v1.245h2.734V339.7H57.7v-5.8Z" transform="translate(-44.873 -259.674)"/>
    <path id="Path_246" data-name="Path 246" class="cls-2" d="M89.323,337.357h1.556l-.734-2.423h-.067Zm-.089-3.557h1.778l1.934,5.8H91.568l-.356-1.112H89.056L88.7,339.6H87.3Z" transform="translate(-67.893 -259.596)"/>
    <path id="Path_247" data-name="Path 247" class="cls-2" d="M126.534,333.9v4.668h2.534V339.7H125.2v-5.8Z" transform="translate(-97.368 -259.674)"/>
    <path id="Path_248" data-name="Path 248" class="cls-2" d="M176.368,333.9v1.111h-2.734v1.2h2.312v1.112h-2.312v1.245h2.712V339.7H172.3v-5.8Z" transform="translate(-133.998 -259.674)"/>
    <g id="Group_200" data-name="Group 200" transform="translate(45.238 74.137)">
      <path id="Path_249" data-name="Path 249" class="cls-2" d="M206.3,337.657c0-.534-.578-.578-1.2-.667a1.58,1.58,0,0,1-1.6-1.712c0-1.467,1.178-1.778,2.312-1.778.578,0,1.089.067,1.6.111v1.156a11.174,11.174,0,0,0-1.556-.156c-.778,0-1,.267-1,.622,0,.467.467.511,1.023.622.845.133,1.823.267,1.823,1.756,0,1.4-1.023,1.867-2.29,1.867a10.5,10.5,0,0,1-1.8-.178v-1.156a9.816,9.816,0,0,0,1.689.222c.667-.022,1-.267,1-.711" transform="translate(-203.5 -333.5)"/>
    </g>
    <path id="Path_250" data-name="Path 250" class="cls-2" d="M238.835,335.011h-1.8V339.7H235.7v-4.691h-1.8V333.9h4.935Z" transform="translate(-181.904 -259.674)"/>
    <path id="Path_251" data-name="Path 251" class="cls-2" d="M266.3,337.357h1.556l-.734-2.423h-.067Zm-.089-3.557h1.778l1.934,5.8h-1.4l-.333-1.112h-2.156l-.356,1.112H264.3Z" transform="translate(-205.546 -259.596)"/>
    <path id="Path_252" data-name="Path 252" class="cls-2" d="M302.557,335.011h-1.823V339.7h-1.312v-4.691H297.6V333.9h4.957Z" transform="translate(-231.444 -259.674)"/>
    <path id="Path_253" data-name="Path 253" class="cls-2" d="M336.968,333.9v1.111h-2.734v1.2h2.312v1.112h-2.312v1.245h2.712V339.7H332.9v-5.8Z" transform="translate(-258.897 -259.674)"/>
    <rect id="Rectangle_160" data-name="Rectangle 160" class="cls-2" width="1.334" height="5.802" transform="translate(85.163 74.226)"/>
    <path id="Path_254" data-name="Path 254" class="cls-2" d="M405.534,336.1v3.6H404.2v-5.8h1.423l2.356,3.712V333.9h1.312v5.8h-1.4Z" transform="translate(-314.347 -259.674)"/>
    <path id="Path_255" data-name="Path 255" class="cls-2" d="M443.246,339.7h-1.8l-1.845-5.8H441l1.289,4.335h.2l1.178-4.335h1.445Z" transform="translate(-341.877 -259.674)"/>
    <path id="Path_256" data-name="Path 256" class="cls-2" d="M480.968,333.9v1.111h-2.757v1.2h2.334v1.112h-2.334v1.245h2.734V339.7H476.9v-5.8Z" transform="translate(-370.885 -259.674)"/>
    <g id="Group_201" data-name="Group 201" transform="translate(112.95 74.137)">
      <path id="Path_257" data-name="Path 257" class="cls-2" d="M510.9,337.657c0-.534-.578-.578-1.2-.667a1.58,1.58,0,0,1-1.6-1.712c0-1.467,1.178-1.778,2.334-1.778.578,0,1.089.067,1.6.111v1.156a11.176,11.176,0,0,0-1.556-.156c-.778,0-1,.267-1,.622,0,.467.467.511,1,.622.845.133,1.823.267,1.823,1.756,0,1.4-1.023,1.867-2.29,1.867a10.5,10.5,0,0,1-1.8-.178v-1.156a9.816,9.816,0,0,0,1.69.222c.645-.022,1-.267,1-.711" transform="translate(-508.1 -333.5)"/>
    </g>
    <path id="Path_258" data-name="Path 258" class="cls-2" d="M543.435,335.011h-1.8V339.7H540.3v-4.691h-1.8V333.9h4.935Z" transform="translate(-418.792 -259.674)"/>
    <path id="Path_259" data-name="Path 259" class="cls-2" d="M576.167,339.7l-1.134-4.246h-.067V339.7H573.7v-5.8h2.134l1.089,4.224h.089l1.134-4.224h2.067v5.8h-1.245v-4.246h-.089l-1.156,4.246Z" transform="translate(-446.167 -259.674)"/>
    <path id="Path_260" data-name="Path 260" class="cls-2" d="M622.268,333.9v1.111h-2.757v1.2h2.334v1.112h-2.334v1.245h2.734V339.7H618.2v-5.8Z" transform="translate(-480.775 -259.674)"/>
    <path id="Path_261" data-name="Path 261" class="cls-2" d="M651.812,336.1v3.6H650.5v-5.8h1.423l2.356,3.712V333.9h1.312v5.8h-1.4Z" transform="translate(-505.894 -259.674)"/>
    <path id="Path_262" data-name="Path 262" class="cls-2" d="M691.257,335.011h-1.8V339.7h-1.334v-4.691H686.3V333.9h4.957Z" transform="translate(-533.736 -259.674)"/>
    <g id="Group_202" data-name="Group 202" transform="translate(0 41.325)">
      <path id="Path_263" data-name="Path 263" class="cls-1" d="M12.493,209.651h1.045v2.823H5.313v-2.823H6.336c.667,0,.845-.356.845-.778v-14H3.223l-.645,3.49H0V191.6H18.807v6.758H16.228l-.645-3.468H11.671v14.072c.044.422.222.689.823.689" transform="translate(0 -190.333)"/>
      <path id="Path_264" data-name="Path 264" class="cls-1" d="M93.515,219.191c0-1.823-.534-3.735-3.046-3.735-2.223,0-3.179,1.645-3.179,3.735ZM82.8,220.77c0-5.469,3.112-8.27,7.8-8.27,5.557,0,6.936,3.646,6.936,7.6v1.6H87.357c.022,2.979,1.334,4.224,3.979,4.224a3.933,3.933,0,0,0,3.935-2.267h1.934v3.979a16.7,16.7,0,0,1-6.313,1.423c-5.18,0-8.092-2.556-8.092-8.292" transform="translate(-64.394 -206.587)"/>
      <path id="Path_265" data-name="Path 265" class="cls-1" d="M170.772,225.493c0,.6.267.689.734.689h1.178v2.6h-7.936v-2.6h1.734V218.2a1.971,1.971,0,0,0-2.267-2.245,7.427,7.427,0,0,0-3.512,1.267v8.959h1.734v2.6H154.5v-2.6h1.156c.489,0,.756-.089.756-.689v-9.137c0-.6-.267-.734-.756-.734H154.5v-2.645h6.024v1.512a10.043,10.043,0,0,1,5.624-1.89c2.423,0,4.6,1.267,4.6,4.713v8.181Z" transform="translate(-120.155 -206.665)"/>
      <path id="Path_266" data-name="Path 266" class="cls-1" d="M248.18,203.2V209.3h2.579c2.845,0,3.624-1.556,3.624-3.157a2.676,2.676,0,0,0-2.957-2.934Zm0-8.447v5.535h3.112c1.912,0,2.512-1.512,2.512-2.845,0-1.423-.889-2.69-3.09-2.69Zm-6.38,14.894h1.023c.667,0,.867-.311.867-.778V195.2a.686.686,0,0,0-.778-.756H241.8V191.6h9.8c4.468,0,6.758,2.6,6.758,5.535A4.955,4.955,0,0,1,256,201.492v.133a4.677,4.677,0,0,1,3.046,4.668c0,3.912-3.179,6.18-7.8,6.18H241.8Z" transform="translate(-188.048 -190.333)"/>
      <path id="Path_267" data-name="Path 267" class="cls-1" d="M326.012,216.823c0-.6-.267-.734-.756-.734H324.1v-2.645h5.958V216.2c2.579-2.468,4.579-3,5.268-3v4.446c-2.179.378-4.046.889-5.046,1.134v7.869h1.912v2.645H324.1v-2.645h1.156c.467,0,.734-.089.734-.689v-9.137Z" transform="translate(-252.053 -207.131)"/>
      <path id="Path_268" data-name="Path 268" class="cls-1" d="M384.6,186h4.446v3.49H384.6Zm5.357,19.5h.934v2.668a11.629,11.629,0,0,1-2.356.245c-2.69,0-3.846-1.023-3.846-3.446v-9.27c0-.6-.222-.734-.756-.734H382.8v-2.645h6.18v11.893c0,.8.245,1.289.978,1.289" transform="translate(-297.704 -185.978)"/>
      <path id="Path_269" data-name="Path 269" class="cls-1" d="M436.093,203.884v-8.492a9.382,9.382,0,0,0-2.468-.4c-3.179,0-4.024,1.8-4.024,5.335,0,3.49,1.112,4.935,2.957,4.935a6.6,6.6,0,0,0,3.535-1.378m0-14.583c0-.6-.245-.734-.756-.734h-1.223V185.9h6.269v18.406a.973.973,0,0,0,1.089,1.111h.823v2.6a23.163,23.163,0,0,1-2.6.222c-1.334,0-2.579-.222-3.157-1.534a10,10,0,0,1-5.335,1.645c-2.934,0-6-1.756-6-7.958,0-6.38,3.357-8.559,7.692-8.559a17.8,17.8,0,0,1,3.223.422V189.3Z" transform="translate(-330.678 -185.9)"/>
      <path id="Path_270" data-name="Path 270" class="cls-1" d="M514.881,215.169c0-1.734-.645-2.89-2.668-2.89-2.045,0-2.734,1.156-2.734,2.89,0,1.756.667,2.868,2.734,2.868,2.045,0,2.668-1.067,2.668-2.868m-.667,10.515H511.08a1.674,1.674,0,0,0-1.89,1.645c0,1.245.822,1.978,3.268,1.978,2.468,0,3.824-.6,3.824-2.179.022-.622-.356-1.445-2.067-1.445m-7.736-3.068a3.734,3.734,0,0,1,1.489-2.779,4.928,4.928,0,0,1-2.779-4.579c0-3.646,2.579-5.824,7-5.824,1.445,0,2.8.378,3.779.378.823,0,1.534-.044,1.534-1.312h3.312c0,2.69-1.178,3.268-2.845,3.735a3.847,3.847,0,0,1,1.245,3.045c0,3.446-2.734,5.357-6.4,5.357a14.822,14.822,0,0,1-2.067-.2,1.9,1.9,0,0,0-.467,1.178c0,.556.378.956,1.334.956h4.135c2.512,0,4.8.978,4.8,3.824,0,3.8-3.223,5.491-8.759,5.491-4.891,0-6.891-1.312-6.891-3.623,0-1.645.823-2.868,3.068-3.268a2.463,2.463,0,0,1-1.489-2.379" transform="translate(-392.661 -203.476)"/>
      <path id="Path_271" data-name="Path 271" class="cls-1" d="M589.115,219.191c0-1.823-.511-3.735-3.046-3.735-2.223,0-3.179,1.645-3.179,3.735ZM578.4,220.77c0-5.469,3.112-8.27,7.8-8.27,5.558,0,6.936,3.646,6.936,7.6v1.6H582.957c.022,2.979,1.334,4.224,3.979,4.224a3.933,3.933,0,0,0,3.935-2.267h1.934v3.979a16.7,16.7,0,0,1-6.313,1.423c-5.18,0-8.092-2.556-8.092-8.292" transform="translate(-449.822 -206.587)"/>
      <path id="Path_272" data-name="Path 272" class="cls-1" d="M665.671,213.145V216.9h-2.134a3.3,3.3,0,0,0-3.157-1.712c-1.534,0-2.223.778-2.223,1.689,0,1.4,1.6,1.556,3.334,2.023,2.223.6,4.713,1.312,4.713,4.757,0,3.89-3.045,5.38-6.891,5.38a21.459,21.459,0,0,1-5.446-.756v-3.89h2.356a3,3,0,0,0,3.023,2.09c1.356,0,2.556-.489,2.556-2.112,0-1.378-1.556-1.778-3.2-2.179-2.223-.556-4.8-1.467-4.8-4.846,0-3.446,2.957-4.846,6.78-4.846a25.741,25.741,0,0,1,5.091.645" transform="translate(-508.461 -206.587)"/>
    </g>
  </g>
</svg>
